<mxfile host="app.diagrams.net" modified="2024-03-30T12:15:11.876Z" agent="Mozilla/5.0 (Macintosh; Intel Mac OS X 10_15_7) AppleWebKit/537.36 (KHTML, like Gecko) Chrome/123.0.0.0 Safari/537.36" etag="6cSGZC3J9YbuO5doBGwW" version="24.2.1" type="github">
  <diagram name="第 1 页" id="P0TpJ8D7IhTMmNg25FRU">
    <mxGraphModel dx="724" dy="479" grid="1" gridSize="10" guides="1" tooltips="1" connect="1" arrows="1" fold="1" page="1" pageScale="1" pageWidth="827" pageHeight="1169" math="0" shadow="0">
      <root>
        <mxCell id="0" />
        <mxCell id="1" parent="0" />
        <mxCell id="s4OmunB41dEPSGUwzwU4-1" value="" style="rounded=0;whiteSpace=wrap;html=1;gradientColor=none;fillColor=default;fillStyle=auto;opacity=40;" vertex="1" parent="1">
          <mxGeometry x="210" y="220" width="120" height="60" as="geometry" />
        </mxCell>
      </root>
    </mxGraphModel>
  </diagram>
</mxfile>
